<?xml version="1.0" encoding="UTF-8" ?>
<!DOCTYPE svg PUBLIC "-//W3C//DTD SVG 1.1//EN" "http://www.w3.org/Graphics/SVG/1.1/DTD/svg11.dtd">
<svg width="168pt" height="162pt" viewBox="0 0 168 162" version="1.1" xmlns="http://www.w3.org/2000/svg">
<g id="#ffffffff">
</g>
<g id="#010101ff" class="logoColor">
<path fill="#010101" opacity="1.00" d=" M 2.90 89.00 C 3.13 60.32 6.83 30.75 20.33 5.03 C 23.31 15.34 24.04 26.22 27.34 36.41 C 42.60 42.23 56.65 51.41 72.90 54.49 C 71.12 56.86 69.28 59.37 66.54 60.71 C 61.16 63.67 54.81 62.21 48.97 62.84 C 39.07 63.97 29.62 67.32 19.95 69.53 C 19.02 66.67 18.01 63.83 16.83 61.07 C 16.91 66.30 17.02 71.52 16.84 76.75 C 22.55 73.93 28.06 70.57 34.16 68.62 C 35.91 68.13 37.37 69.65 38.31 70.91 C 48.36 86.04 55.62 104.40 52.29 122.83 C 49.66 135.78 44.57 148.04 40.43 160.55 C 40.13 148.08 40.84 135.21 36.87 123.20 C 34.98 118.88 30.02 117.61 25.70 117.64 C 22.48 118.84 19.59 121.40 19.20 124.99 C 17.96 135.08 18.27 145.30 18.22 155.45 C 5.49 135.89 3.62 111.71 2.90 89.00 Z" />
<path fill="#010101" opacity="1.00" d=" M 28.70 34.67 C 31.52 29.03 33.97 23.21 36.70 17.53 C 36.94 24.05 36.69 30.58 37.19 37.09 C 34.27 36.61 31.44 35.76 28.70 34.67 Z" />
<path fill="#010101" opacity="1.00" d=" M 44.23 75.34 C 51.54 75.52 58.51 79.65 61.97 86.12 C 66.32 92.84 66.27 101.32 64.49 108.86 C 63.00 114.70 60.32 120.51 55.54 124.39 C 58.69 107.36 54.17 89.41 44.23 75.34 Z" />
<path fill="#010101" opacity="1.00" d=" M 67.76 89.80 C 72.84 95.19 74.26 102.88 74.17 110.04 C 73.69 122.38 69.04 134.45 61.44 144.15 C 62.26 136.81 62.83 129.35 61.36 122.04 C 66.00 117.65 67.15 110.99 67.90 104.93 C 68.67 99.91 68.27 94.82 67.76 89.80 Z" />
<path fill="#010101" opacity="1.00" d=" M 75.47 101.01 C 87.06 113.58 100.64 125.94 117.84 129.68 C 134.61 133.19 151.18 125.93 165.13 117.22 C 162.38 127.21 153.46 133.58 146.21 140.29 C 148.01 140.67 149.81 141.01 151.60 141.44 C 141.63 149.03 127.99 151.51 115.88 148.50 C 94.50 142.73 78.04 122.91 75.47 101.01 M 128.96 135.21 C 125.01 135.09 122.10 138.17 119.38 140.61 C 121.84 143.01 123.93 147.11 127.97 146.50 C 132.81 146.76 137.38 144.91 142.02 143.82 C 139.37 143.06 136.69 142.44 133.98 141.98 C 141.86 138.59 150.55 135.56 155.65 128.16 C 146.93 131.08 138.30 134.86 128.96 135.21 Z" />
</g>
</svg>
